<svg xmlns="http://www.w3.org/2000/svg" xmlns:xlink="http://www.w3.org/1999/xlink" width="500" zoomAndPan="magnify" viewBox="0 0 375 374.999991" height="500" preserveAspectRatio="xMidYMid meet" version="1.0"><defs><filter x="0%" y="0%" width="100%" height="100%" id="id1"><feColorMatrix values="0 0 0 0 1 0 0 0 0 1 0 0 0 0 1 0 0 0 1 0" color-interpolation-filters="sRGB"/></filter><g/><mask id="id2"><g filter="url(#id1)"><rect x="-37.5" width="450" fill="#000000" y="-37.499999" height="449.999989" fill-opacity="0.2471"/></g></mask><clipPath id="id3"><path d="M 0.121094 0 L 219 0 L 219 218.878906 L 0.121094 218.878906 Z M 0.121094 0 " clip-rule="nonzero"/></clipPath><clipPath id="id4"><path d="M 0.121094 0 L 209 0 L 209 209 L 0.121094 209 Z M 0.121094 0 " clip-rule="nonzero"/></clipPath><clipPath id="id5"><rect x="0" width="219" y="0" height="219"/></clipPath><clipPath id="id6"><path d="M 99.316406 90.085938 L 164.566406 90.085938 L 164.566406 183 L 99.316406 183 Z M 99.316406 90.085938 " clip-rule="nonzero"/></clipPath><clipPath id="id7"><path d="M 105 107 L 159 107 L 159 201.835938 L 105 201.835938 Z M 105 107 " clip-rule="nonzero"/></clipPath><clipPath id="id8"><path d="M 198.449219 113.351562 L 289.199219 113.351562 L 289.199219 170 L 198.449219 170 Z M 198.449219 113.351562 " clip-rule="nonzero"/></clipPath><clipPath id="id9"><path d="M 221 130 L 274 130 L 274 199.601562 L 221 199.601562 Z M 221 130 " clip-rule="nonzero"/></clipPath></defs><g mask="url(#id2)"><g transform="matrix(1, 0, 0, 1, 81, 78)"><g clip-path="url(#id5)"><g clip-path="url(#id3)"><path fill="#cfcaba" d="M 109.003906 19.484375 C 98.027344 30.457031 92.65625 49.835938 93.039062 77.078125 C 93.109375 82.257812 93.382812 87.222656 93.738281 91.703125 C 93.824219 92.78125 92.929688 93.675781 91.851562 93.589844 C 87.371094 93.234375 82.40625 92.960938 77.226562 92.890625 C 49.984375 92.507812 30.605469 97.878906 19.632812 108.851562 C -5.585938 134.070312 -5.703125 174.984375 19.371094 200.058594 C 44.441406 225.132812 85.359375 225.015625 110.574219 199.796875 C 121.550781 188.824219 126.921875 169.445312 126.539062 142.199219 C 126.46875 137.019531 126.195312 132.058594 125.835938 127.578125 C 125.75 126.5 126.648438 125.601562 127.726562 125.6875 C 132.207031 126.046875 137.167969 126.320312 142.351562 126.390625 C 169.59375 126.773438 188.972656 121.402344 199.945312 110.425781 C 225.164062 85.207031 225.28125 44.292969 200.207031 19.21875 C 175.136719 -5.851562 134.21875 -5.734375 109.003906 19.484375 Z M 99 142.9375 C 99.214844 161.175781 96.261719 175.152344 91.097656 180.316406 C 76.621094 194.792969 53.183594 194.910156 38.851562 180.578125 C 24.519531 166.246094 24.636719 142.808594 39.113281 128.332031 C 44.277344 123.167969 58.253906 120.210938 76.492188 120.429688 C 83.824219 120.519531 90.765625 121.078125 96.203125 121.675781 C 97.023438 121.765625 97.664062 122.40625 97.753906 123.226562 C 98.347656 128.664062 98.910156 135.605469 99 142.9375 Z M 180.464844 90.945312 C 175.300781 96.113281 161.324219 99.066406 143.085938 98.847656 C 135.753906 98.761719 128.8125 98.199219 123.375 97.605469 C 122.554688 97.515625 121.914062 96.871094 121.824219 96.054688 C 121.230469 90.617188 120.667969 83.675781 120.578125 76.34375 C 120.359375 58.101562 123.316406 44.128906 128.480469 38.960938 C 142.957031 24.484375 166.398438 24.367188 180.730469 38.699219 C 195.0625 53.03125 194.941406 76.46875 180.464844 90.945312 Z M 180.464844 90.945312 " fill-opacity="1" fill-rule="nonzero"/></g><g clip-path="url(#id4)"><path fill="#b4afa1" d="M 96.992188 112.652344 C 97.011719 112.652344 97.070312 112.65625 97.171875 112.65625 C 105.875 112.785156 112.933594 105.722656 112.804688 97.023438 C 112.804688 96.921875 112.804688 96.859375 112.804688 96.84375 C 111.664062 50.644531 130.757812 31.914062 130.757812 31.914062 C 146.910156 16.070312 179.214844 15.390625 209 30.195312 C 206.527344 26.300781 203.601562 22.613281 200.207031 19.21875 C 175.136719 -5.851562 134.21875 -5.734375 109.003906 19.484375 C 98.027344 30.457031 92.65625 49.835938 93.039062 77.078125 C 93.109375 82.257812 93.382812 87.222656 93.742188 91.707031 C 93.824219 92.78125 92.933594 93.675781 91.855469 93.589844 C 87.375 93.234375 82.410156 92.960938 77.226562 92.890625 C 49.984375 92.507812 30.605469 97.878906 19.632812 108.851562 C -5.585938 134.070312 -5.703125 174.984375 19.371094 200.058594 C 22.761719 203.453125 26.449219 206.378906 30.34375 208.851562 C 16.085938 177.320312 17.8125 144.125 34.347656 128.859375 C 34.347656 128.859375 53.070312 111.574219 96.992188 112.652344 Z M 96.992188 112.652344 " fill-opacity="1" fill-rule="nonzero"/></g></g></g></g><g fill="#6f913d" fill-opacity="1"><g transform="translate(122.715834, 224.403458)"><g><path d="M 16.898438 1.132812 C 21.875 1.132812 26.023438 -2.488281 26.476562 -7.542969 L 23.6875 -8.597656 C 23.386719 -4.449219 20.59375 -1.660156 17.046875 -1.660156 C 13.199219 -1.660156 10.789062 -4.753906 10.789062 -9.355469 L 10.789062 -35 L 25.121094 -35 L 25.121094 -37.792969 L 10.789062 -37.792969 L 10.789062 -50.089844 L 7.769531 -49.183594 L 7.769531 -37.792969 L 0 -37.792969 L 0 -35 L 7.84375 -35 L 7.84375 -9.128906 C 7.84375 -3.015625 11.390625 1.132812 16.898438 1.132812 Z M 16.898438 1.132812 "/></g></g></g><g fill="#6f913d" fill-opacity="1"><g transform="translate(149.947346, 224.403458)"><g><path d="M 19.539062 1.132812 C 26.628906 1.132812 32.511719 -3.167969 34.699219 -9.957031 L 32.058594 -11.238281 C 30.324219 -5.429688 25.496094 -1.734375 19.613281 -1.734375 C 11.316406 -1.734375 5.65625 -8.070312 5.28125 -17.878906 L 33.191406 -17.878906 L 33.191406 -18.933594 C 32.964844 -31.078125 27.15625 -38.925781 18.027344 -38.925781 C 8.597656 -38.925781 2.261719 -31.078125 2.261719 -19.007812 C 2.261719 -6.789062 9.203125 1.132812 19.539062 1.132812 Z M 5.355469 -20.746094 C 5.882812 -30.023438 10.789062 -36.058594 18.027344 -36.058594 C 24.894531 -36.058594 29.644531 -30.097656 30.175781 -20.746094 Z M 5.355469 -20.746094 "/></g></g></g><g fill="#6f913d" fill-opacity="1"><g transform="translate(186.30631, 224.403458)"><g><path d="M 18.933594 -38.925781 C 13.351562 -38.925781 8.902344 -36.433594 6.863281 -32.136719 L 6.789062 -32.136719 L 6.636719 -37.792969 L 3.773438 -37.792969 L 3.773438 0 L 6.789062 0 L 6.789062 -24.214844 C 6.789062 -31.457031 11.238281 -36.132812 18.558594 -36.132812 C 24.0625 -36.132812 27.382812 -32.664062 27.382812 -26.929688 L 27.382812 0 L 30.398438 0 L 30.398438 -27.003906 C 30.398438 -34.472656 26.101562 -38.925781 18.933594 -38.925781 Z M 18.933594 -38.925781 "/></g></g></g><g fill="#6f913d" fill-opacity="1"><g transform="translate(220.100539, 224.403458)"><g><path d="M 18.253906 1.132812 C 24.441406 1.132812 29.34375 -2.414062 31.683594 -8.375 L 31.757812 -8.375 L 31.832031 0 L 34.699219 0 L 34.699219 -55.144531 L 31.683594 -55.144531 L 31.683594 -29.570312 L 31.605469 -29.570312 C 29.269531 -35.378906 24.441406 -38.925781 18.253906 -38.925781 C 8.75 -38.925781 2.261719 -30.777344 2.261719 -18.859375 C 2.261719 -7.015625 8.75 1.132812 18.253906 1.132812 Z M 18.480469 -1.734375 C 10.636719 -1.734375 5.28125 -8.75 5.28125 -18.859375 C 5.28125 -29.042969 10.636719 -36.058594 18.480469 -36.058594 C 26.328125 -36.058594 31.757812 -29.042969 31.757812 -18.859375 C 31.757812 -8.75 26.328125 -1.734375 18.480469 -1.734375 Z M 18.480469 -1.734375 "/></g></g></g><g clip-path="url(#id6)"><path fill="#bfe063" d="M 131.941406 90.085938 C 131.941406 90.085938 99.371094 121.066406 99.371094 150.339844 C 99.371094 179.617188 131.941406 182.472656 131.941406 182.472656 C 131.941406 182.472656 164.507812 179.617188 164.507812 150.339844 C 164.507812 121.066406 131.941406 90.085938 131.941406 90.085938 Z M 131.941406 90.085938 " fill-opacity="1" fill-rule="nonzero"/></g><g clip-path="url(#id7)"><path fill="#6f913d" d="M 158.375 145.753906 C 157.824219 145.207031 156.976562 145.207031 156.429688 145.753906 L 133.308594 168.933594 L 133.308594 155.175781 L 154.347656 134.082031 C 154.894531 133.535156 154.894531 132.683594 154.347656 132.132812 C 153.796875 131.585938 152.949219 131.585938 152.402344 132.132812 L 133.28125 151.304688 L 133.28125 137.542969 L 149.167969 121.613281 C 149.71875 121.066406 149.71875 120.214844 149.167969 119.664062 C 148.621094 119.117188 147.773438 119.117188 147.226562 119.664062 L 133.253906 133.671875 L 133.253906 109.3125 C 133.253906 108.542969 132.652344 107.9375 131.886719 107.9375 C 131.117188 107.9375 130.515625 108.542969 130.515625 109.3125 L 130.515625 133.617188 L 116.546875 119.609375 C 116 119.0625 115.148438 119.0625 114.601562 119.609375 C 114.054688 120.160156 114.054688 121.011719 114.601562 121.558594 L 130.488281 137.488281 L 130.488281 151.25 L 111.453125 132.105469 C 110.902344 131.554688 110.054688 131.554688 109.507812 132.105469 C 108.957031 132.65625 108.957031 133.507812 109.507812 134.054688 L 130.542969 155.148438 L 130.542969 168.90625 L 107.425781 145.726562 C 106.875 145.179688 106.027344 145.179688 105.480469 145.726562 C 104.933594 146.277344 104.933594 147.128906 105.480469 147.679688 L 130.542969 172.808594 L 130.542969 200.464844 C 130.542969 201.230469 131.144531 201.835938 131.914062 201.835938 C 132.679688 201.835938 133.28125 201.230469 133.28125 200.464844 L 133.28125 172.808594 L 158.347656 147.679688 C 158.894531 147.15625 158.894531 146.277344 158.375 145.753906 Z M 158.375 145.753906 " fill-opacity="1" fill-rule="nonzero"/></g><g clip-path="url(#id8)"><path fill="#bfe063" d="M 250.816406 167.433594 C 250.816406 167.433594 233.542969 167.988281 217.375 154.074219 C 201.207031 140.164062 198.714844 113.8125 198.53125 114 C 198.347656 114.183594 223 109.226562 241.042969 125.664062 C 259.085938 142.101562 250.816406 167.433594 250.816406 167.433594 Z M 284.351562 149.921875 C 289.515625 139.609375 289.085938 126.433594 289.085938 126.433594 C 289.085938 126.433594 272.457031 126.3125 263.234375 137.730469 C 251.308594 152.445312 256.226562 169.929688 256.226562 169.929688 C 256.226562 169.929688 276.882812 164.820312 284.351562 149.921875 Z M 284.351562 149.921875 " fill-opacity="1" fill-rule="nonzero"/></g><g clip-path="url(#id9)"><path fill="#6f913d" d="M 272.796875 141.484375 C 272.210938 140.871094 271.226562 140.871094 270.613281 141.457031 C 260.867188 151.058594 256.074219 162.480469 253.738281 174.113281 C 251.15625 160.941406 243.933594 140.933594 223.675781 130.40625 C 222.90625 130.003906 221.984375 130.3125 221.617188 131.050781 C 221.214844 131.789062 221.523438 132.742188 222.261719 133.113281 C 250.539062 147.828125 252.015625 182.332031 252.078125 186.488281 C 251.769531 190.398438 251.679688 194.246094 251.648438 198 C 251.648438 198.863281 252.324219 199.539062 253.183594 199.539062 C 254.015625 199.539062 254.722656 198.863281 254.722656 198 C 254.753906 194.492188 254.84375 190.921875 255.089844 187.289062 C 255.121094 187.164062 255.152344 187.042969 255.152344 186.917969 L 255.152344 186.582031 C 256.320312 171.527344 260.285156 155.890625 272.765625 143.609375 C 273.378906 143.054688 273.378906 142.101562 272.796875 141.484375 Z M 272.796875 141.484375 " fill-opacity="1" fill-rule="nonzero"/></g></svg>